<?xml version="1.0" encoding="UTF-8"?>
<!DOCTYPE svg PUBLIC "-//W3C//DTD SVG 1.1//EN" "http://www.w3.org/Graphics/SVG/1.1/DTD/svg11.dtd">
<svg xmlns="http://www.w3.org/2000/svg" version="1.1" width="2000px" height="520px" style="shape-rendering:geometricPrecision; text-rendering:geometricPrecision; image-rendering:optimizeQuality; fill-rule:evenodd; clip-rule:evenodd" xmlns:xlink="http://www.w3.org/1999/xlink">
<g><path style="opacity:0.999" fill="#ed3d38" d="M 522.5,-0.5 C 524.5,-0.5 526.5,-0.5 528.5,-0.5C 531.499,4.33918 532.999,9.67251 533,15.5C 533.667,178.167 533.667,340.833 533,503.5C 532.999,509.327 531.499,514.661 528.5,519.5C 526.5,519.5 524.5,519.5 522.5,519.5C 519.603,514.25 518.103,508.583 518,502.5C 517.333,340.5 517.333,178.5 518,16.5C 518.112,10.3825 519.612,4.71587 522.5,-0.5 Z"/></g>
<g><path style="opacity:0.998" fill="#ed3d37" d="M 378.5,-0.5 C 378.833,-0.5 379.167,-0.5 379.5,-0.5C 413.479,33.8124 447.479,68.1458 481.5,102.5C 463.833,120.5 446.167,138.5 428.5,156.5C 438.833,167.167 449.167,177.833 459.5,188.5C 459,188.833 458.5,189.167 458,189.5C 412.894,178.846 367.727,168.512 322.5,158.5C 312.714,112.859 302.381,67.3594 291.5,22C 292.167,21.3333 292.833,21.3333 293.5,22C 304,32.5 314.5,43 325,53.5C 343.035,35.6319 360.868,17.6319 378.5,-0.5 Z"/></g>
<g><path style="opacity:0.997" fill="#ee3d37" d="M 24.5,188.5 C 34.4126,180.091 43.9126,171.091 53,161.5C 53.4643,160.906 53.631,160.239 53.5,159.5C 53.6107,158.883 53.944,158.383 54.5,158C 36.5,140 18.5,122 0.5,104C 34.6804,69.6529 69.0137,35.4862 103.5,1.5C 121.5,19.1667 139.5,36.8333 157.5,54.5C 167.986,44.5143 178.319,34.3476 188.5,24C 189.483,23.4092 190.15,23.7425 190.5,25C 179.846,70.1062 169.512,115.273 159.5,160.5C 114.1,170.516 68.767,180.85 23.5,191.5C 22.3347,190.14 22.668,189.14 24.5,188.5 Z"/></g>
<g><path style="opacity:0.993" fill="#ee3d37" d="M 571.5,8.5 C 584.5,8.5 597.5,8.5 610.5,8.5C 610.5,30.8333 610.5,53.1667 610.5,75.5C 616.509,75.6662 622.509,75.4995 628.5,75C 631.376,74.5621 634.043,73.5621 636.5,72C 655.529,52.4805 672.862,31.6471 688.5,9.5C 703.167,8.16667 717.833,8.16667 732.5,9.5C 728.667,15.1667 724.833,20.8333 721,26.5C 703.195,45.305 685.029,63.805 666.5,82C 674.46,85.3119 681.794,89.6453 688.5,95C 702.833,107.333 717.167,119.667 731.5,132C 740.059,136.739 749.059,140.073 758.5,142C 756.427,149.122 754.427,156.289 752.5,163.5C 734.483,168.69 718.15,165.523 703.5,154C 689.862,141.363 676.529,128.363 663.5,115C 655.628,108.566 646.628,104.566 636.5,103C 627.855,102.073 619.189,101.573 610.5,101.5C 610.667,121.836 610.5,142.169 610,162.5C 598.247,163.488 586.414,163.821 574.5,163.5C 574.667,117.832 574.5,72.1655 574,26.5C 573.328,20.4547 572.495,14.4547 571.5,8.5 Z"/></g>
<g><path style="opacity:0.994" fill="#ed3d37" d="M 809.5,8.5 C 843.502,8.33335 877.502,8.50002 911.5,9C 932.333,11.1667 943.833,22.6667 946,43.5C 946.667,71.5 946.667,99.5 946,127.5C 942.827,151.001 929.327,162.834 905.5,163C 872.144,163.926 838.811,163.592 805.5,162C 784.518,157.919 774.018,145.085 774,123.5C 773.071,95.472 773.404,67.472 775,39.5C 779.088,20.9113 790.588,10.5779 809.5,8.5 Z M 824.5,34.5 C 848.502,34.3334 872.502,34.5 896.5,35C 904,37.1667 908.833,42 911,49.5C 911.667,73.5 911.667,97.5 911,121.5C 909.209,131.157 903.375,136.323 893.5,137C 871.5,137.667 849.5,137.667 827.5,137C 818.854,136.607 813.02,132.441 810,124.5C 809.333,98.8333 809.333,73.1667 810,47.5C 812.524,40.4705 817.357,36.1372 824.5,34.5 Z"/></g>
<g><path style="opacity:0.985" fill="#ee3e37" d="M 1079.5,8.5 C 1092.17,8.5 1104.83,8.5 1117.5,8.5C 1117.67,47.5014 1117.5,86.5014 1117,125.5C 1115.4,150.761 1101.9,163.261 1076.5,163C 1046.46,163.947 1016.46,163.28 986.5,161C 980.224,160.265 974.224,158.598 968.5,156C 967.707,154.915 967.04,153.748 966.5,152.5C 970.438,144.755 975.272,137.755 981,131.5C 987.977,133.895 995.143,135.395 1002.5,136C 1023.49,137.309 1044.49,137.642 1065.5,137C 1073.96,136.866 1079.13,132.699 1081,124.5C 1081.67,89.8333 1081.67,55.1667 1081,20.5C 1080.7,16.4517 1080.2,12.4517 1079.5,8.5 Z"/></g>
<g><path style="opacity:0.991" fill="#ee3d37" d="M 1140.5,8.5 C 1153.08,8.17786 1165.58,8.51119 1178,9.5C 1189.33,40.1667 1200.67,70.8333 1212,101.5C 1215.11,112.544 1218.27,123.544 1221.5,134.5C 1233.48,92.5485 1246.48,50.8818 1260.5,9.5C 1275.82,8.50063 1291.15,8.1673 1306.5,8.5C 1320.56,50.3572 1334.23,92.3572 1347.5,134.5C 1348.09,134.291 1348.59,133.957 1349,133.5C 1350.87,125.137 1352.87,116.804 1355,108.5C 1366.47,75.2425 1377.64,41.9092 1388.5,8.5C 1401.17,8.5 1413.83,8.5 1426.5,8.5C 1425.87,15.26 1424.71,21.9267 1423,28.5C 1405.4,73.1272 1387.9,117.794 1370.5,162.5C 1355.17,163.833 1339.83,163.833 1324.5,162.5C 1310.75,122.752 1296.92,83.0849 1283,43.5C 1269.35,83.1226 1255.68,122.789 1242,162.5C 1226.91,163.657 1211.74,163.824 1196.5,163C 1177.34,111.672 1158.67,60.1724 1140.5,8.5 Z"/></g>
<g><path style="opacity:0.99" fill="#ee3d37" d="M 1483.5,8.5 C 1501.51,8.16712 1519.51,8.50046 1537.5,9.5C 1562.56,60.6235 1587.9,111.624 1613.5,162.5C 1599.5,163.833 1585.5,163.833 1571.5,162.5C 1566.5,151.833 1561.5,141.167 1556.5,130.5C 1525.5,129.167 1494.5,129.167 1463.5,130.5C 1457.71,141.255 1452.04,152.088 1446.5,163C 1433.49,163.833 1420.49,163.666 1407.5,162.5C 1432.84,111.145 1458.18,59.8114 1483.5,8.5 Z M 1509.5,32.5 C 1511.26,34.1407 1512.76,36.1407 1514,38.5C 1524.71,60.0777 1535.54,81.5777 1546.5,103C 1522.17,103.667 1497.83,103.667 1473.5,103C 1485.39,79.3952 1497.39,55.8952 1509.5,32.5 Z"/></g>
<g><path style="opacity:0.989" fill="#ed3d37" d="M 1660.5,8.5 C 1700.53,8.03531 1740.53,8.53531 1780.5,10C 1784.39,10.4555 1787.72,11.9555 1790.5,14.5C 1788.52,21.7671 1786.85,29.1004 1785.5,36.5C 1748.19,34.5559 1710.86,34.0559 1673.5,35C 1665.97,36.889 1661.8,41.7224 1661,49.5C 1660.33,73.5 1660.33,97.5 1661,121.5C 1662.42,131.587 1668.26,136.753 1678.5,137C 1714.36,137.333 1750.19,136.499 1786,134.5C 1787.5,134.833 1789,135.167 1790.5,135.5C 1793.67,140.5 1796.83,145.5 1800,150.5C 1800.71,152.367 1800.21,153.867 1798.5,155C 1785.81,160.672 1772.48,163.339 1758.5,163C 1727.83,163.667 1697.17,163.667 1666.5,163C 1654.56,162.911 1644.06,159.077 1635,151.5C 1630.79,146.225 1628.13,140.225 1627,133.5C 1625.38,104.201 1625.05,74.8681 1626,45.5C 1628.13,24.2077 1639.63,11.8743 1660.5,8.5 Z"/></g>
<g><path style="opacity:0.991" fill="#ed3d37" d="M 1825.5,8.5 C 1837.5,8.5 1849.5,8.5 1861.5,8.5C 1861.5,29.8333 1861.5,51.1667 1861.5,72.5C 1895.17,72.5 1928.83,72.5 1962.5,72.5C 1962.5,51.1667 1962.5,29.8333 1962.5,8.5C 1974.5,8.5 1986.5,8.5 1998.5,8.5C 1998.5,60.1667 1998.5,111.833 1998.5,163.5C 1986.5,163.5 1974.5,163.5 1962.5,163.5C 1962.5,141.833 1962.5,120.167 1962.5,98.5C 1928.83,98.5 1895.17,98.5 1861.5,98.5C 1861.5,120.167 1861.5,141.833 1861.5,163.5C 1849.5,163.5 1837.5,163.5 1825.5,163.5C 1825.5,111.833 1825.5,60.1667 1825.5,8.5 Z"/></g>
<g><path style="opacity:0.998" fill="#ee3d37" d="M 233.5,79.5 C 255.959,79.0354 277.793,82.3687 299,89.5C 304.821,115.106 310.321,140.773 315.5,166.5C 345.648,172.537 375.648,179.204 405.5,186.5C 421.396,223.665 424.896,261.998 416,301.5C 413.396,312.146 409.896,322.479 405.5,332.5C 375.589,339.649 345.589,346.483 315.5,353C 310.006,378.469 304.506,403.969 299,429.5C 260.526,442.816 222.026,442.816 183.5,429.5C 176.991,403.956 170.991,378.289 165.5,352.5C 136.105,346.321 106.771,339.821 77.5,333C 56.1667,284 56.1667,235 77.5,186C 106.773,179.179 136.106,172.679 165.5,166.5C 171.026,140.728 177.026,115.062 183.5,89.5C 199.872,83.9979 216.539,80.6646 233.5,79.5 Z"/></g>
<g><path style="opacity:0.686" fill="#f33832" d="M 53.5,159.5 C 53.631,160.239 53.4643,160.906 53,161.5C 43.9126,171.091 34.4126,180.091 24.5,188.5C 33.8333,178.5 43.5,168.833 53.5,159.5 Z"/></g>
<g><path style="opacity:0.988" fill="#ee3d37" d="M 571.5,180.5 C 585.412,180.177 599.246,180.51 613,181.5C 632.587,215.671 651.92,250.005 671,284.5C 691.626,250.083 712.126,215.583 732.5,181C 744.495,180.5 756.495,180.333 768.5,180.5C 768.5,232.167 768.5,283.833 768.5,335.5C 756.5,335.5 744.5,335.5 732.5,335.5C 732.833,303.16 732.5,270.826 731.5,238.5C 718.047,266.073 703.547,293.073 688,319.5C 677.243,320.653 666.41,320.82 655.5,320C 639.67,293.51 625.004,266.344 611.5,238.5C 610.5,270.826 610.167,303.16 610.5,335.5C 598.5,335.5 586.5,335.5 574.5,335.5C 574.667,290.165 574.5,244.832 574,199.5C 573.247,193.142 572.414,186.809 571.5,180.5 Z"/></g>
<g><path style="opacity:0.986" fill="#ee3d38" d="M 809.5,180.5 C 864.167,180.5 918.833,180.5 973.5,180.5C 973.5,189.167 973.5,197.833 973.5,206.5C 930.5,206.5 887.5,206.5 844.5,206.5C 844.5,218.5 844.5,230.5 844.5,242.5C 877.167,242.5 909.833,242.5 942.5,242.5C 942.5,251.5 942.5,260.5 942.5,269.5C 909.833,269.5 877.167,269.5 844.5,269.5C 844.5,282.833 844.5,296.167 844.5,309.5C 887.838,309.167 931.172,309.5 974.5,310.5C 977.94,317.045 981.106,323.712 984,330.5C 984.749,331.635 984.583,332.635 983.5,333.5C 980.891,334.23 978.224,334.73 975.5,335C 920.168,335.5 864.834,335.667 809.5,335.5C 809.5,283.833 809.5,232.167 809.5,180.5 Z"/></g>
<g><path style="opacity:0.988" fill="#ed3d37" d="M 1009.5,180.5 C 1052.5,180.333 1095.5,180.5 1138.5,181C 1149.89,180.896 1160.55,183.562 1170.5,189C 1179.72,196.95 1184.56,207.117 1185,219.5C 1185.93,247.861 1185.6,276.195 1184,304.5C 1179.79,324.03 1167.63,334.196 1147.5,335C 1102.5,335.5 1057.5,335.667 1012.5,335.5C 1012.67,289.832 1012.5,244.165 1012,198.5C 1011.33,192.455 1010.49,186.455 1009.5,180.5 Z M 1048.5,206.5 C 1076.17,206.333 1103.84,206.5 1131.5,207C 1140.52,206.911 1146.36,211.078 1149,219.5C 1149.67,245.5 1149.67,271.5 1149,297.5C 1147.09,303.74 1142.93,307.573 1136.5,309C 1107.17,309.5 1077.84,309.667 1048.5,309.5C 1048.5,275.167 1048.5,240.833 1048.5,206.5 Z"/></g>
<g><path style="opacity:0.982" fill="#ee3d37" d="M 1220.5,180.5 C 1232.5,180.5 1244.5,180.5 1256.5,180.5C 1256.5,232.167 1256.5,283.833 1256.5,335.5C 1244.5,335.5 1232.5,335.5 1220.5,335.5C 1220.5,283.833 1220.5,232.167 1220.5,180.5 Z"/></g>
<g><path style="opacity:0.988" fill="#ed3d37" d="M 1334.5,180.5 C 1368.5,180.333 1402.5,180.5 1436.5,181C 1444.31,181.161 1451.81,182.661 1459,185.5C 1458.66,191.554 1457.66,197.554 1456,203.5C 1455.88,206.008 1454.88,208.008 1453,209.5C 1417.56,206.871 1382.06,206.038 1346.5,207C 1338.28,207.512 1333.11,211.679 1331,219.5C 1330.33,245.5 1330.33,271.5 1331,297.5C 1332.94,303.776 1337.11,307.61 1343.5,309C 1369.17,309.667 1394.83,309.667 1420.5,309C 1433.06,308.79 1445.56,307.956 1458,306.5C 1462.15,311.456 1465.82,316.789 1469,322.5C 1469.82,324.701 1469.32,326.534 1467.5,328C 1458.34,332.361 1448.67,334.694 1438.5,335C 1402.17,335.667 1365.83,335.667 1329.5,335C 1305.94,331.466 1294.44,317.633 1295,293.5C 1294.33,270.167 1294.33,246.833 1295,223.5C 1295.62,197.391 1308.78,183.058 1334.5,180.5 Z"/></g>
<g><path style="opacity:0.983" fill="#ee3d37" d="M 1550.5,180.5 C 1568.41,180.174 1586.24,180.508 1604,181.5C 1629.44,232.712 1654.61,284.046 1679.5,335.5C 1665.83,335.667 1652.16,335.5 1638.5,335C 1633.37,324.576 1628.37,314.076 1623.5,303.5C 1592.51,302.333 1561.51,302.167 1530.5,303C 1524.58,313.508 1518.91,324.175 1513.5,335C 1500.49,335.833 1487.49,335.666 1474.5,334.5C 1500.4,283.36 1525.74,232.027 1550.5,180.5 Z M 1575.5,205.5 C 1576.5,205.414 1577.33,205.748 1578,206.5C 1589.76,229.011 1601.26,251.678 1612.5,274.5C 1588.51,275.666 1564.51,275.833 1540.5,275C 1552.32,251.858 1563.99,228.691 1575.5,205.5 Z"/></g>
<g><path style="opacity:0.995" fill="#ed3d37" d="M 1702.5,180.5 C 1714.5,180.5 1726.5,180.5 1738.5,180.5C 1738.5,223.5 1738.5,266.5 1738.5,309.5C 1774.5,309.333 1810.5,309.5 1846.5,310C 1849.52,316.546 1852.69,323.046 1856,329.5C 1856.78,330.944 1856.61,332.277 1855.5,333.5C 1853.22,334.213 1850.89,334.713 1848.5,335C 1798.83,335.667 1749.17,335.667 1699.5,335C 1700.62,329.589 1701.45,324.089 1702,318.5C 1702.5,272.501 1702.67,226.501 1702.5,180.5 Z"/></g>
<g><path style="opacity:0.992" fill="#ee3e38" d="M 457.5,327.5 C 459.028,327.517 459.528,328.184 459,329.5C 448.5,340 438,350.5 427.5,361C 445.5,379 463.5,397 481.5,415C 447.32,449.347 412.986,483.514 378.5,517.5C 360.5,499.833 342.5,482.167 324.5,464.5C 314.014,474.486 303.681,484.652 293.5,495C 292.517,495.591 291.85,495.257 291.5,494C 301.915,448.84 312.249,403.673 322.5,358.5C 367.757,348.785 412.757,338.452 457.5,327.5 Z"/></g>
<g><path style="opacity:0.997" fill="#ed3d37" d="M 104.5,519.5 C 104.167,519.5 103.833,519.5 103.5,519.5C 69.5211,485.188 35.5211,450.854 1.5,416.5C 19.1667,398.5 36.8333,380.5 54.5,362.5C 44.5143,352.014 34.3476,341.681 24,331.5C 23.4092,330.517 23.7425,329.85 25,329.5C 70.1993,339.55 115.199,350.217 160,361.5C 170.779,406.735 180.779,452.068 190,497.5C 179.333,486.833 168.667,476.167 158,465.5C 139.965,483.368 122.132,501.368 104.5,519.5 Z"/></g>
<g><path style="opacity:0.992" fill="#ed3d37" d="M 604.5,353.5 C 641.835,353.333 679.168,353.5 716.5,354C 720.531,354.481 724.531,355.147 728.5,356C 730.997,356.412 732.997,357.578 734.5,359.5C 732.322,366.723 730.656,374.057 729.5,381.5C 692.524,379.604 655.524,379.104 618.5,380C 610.249,381.331 605.749,386.164 605,394.5C 604.333,418.833 604.333,443.167 605,467.5C 606.598,476.097 611.765,480.93 620.5,482C 658.216,482.606 695.883,481.939 733.5,480C 737.364,485.7 741.031,491.533 744.5,497.5C 740.784,501.587 736.117,504.087 730.5,505C 722.254,506.711 713.921,507.711 705.5,508C 670.473,508.945 635.473,508.611 600.5,507C 581.656,503.819 571.489,492.653 570,473.5C 569.333,445.5 569.333,417.5 570,389.5C 572.595,368.742 584.095,356.742 604.5,353.5 Z"/></g>
<g><path style="opacity:0.981" fill="#ed3e38" d="M 769.5,353.5 C 824.167,353.5 878.833,353.5 933.5,353.5C 933.5,362.167 933.5,370.833 933.5,379.5C 890.833,379.5 848.167,379.5 805.5,379.5C 805.5,391.167 805.5,402.833 805.5,414.5C 838.167,414.5 870.833,414.5 903.5,414.5C 903.5,423.5 903.5,432.5 903.5,441.5C 870.833,441.5 838.167,441.5 805.5,441.5C 805.5,455.167 805.5,468.833 805.5,482.5C 848.501,482.333 891.501,482.5 934.5,483C 938.541,490.577 941.875,498.41 944.5,506.5C 939.851,507.065 935.184,507.565 930.5,508C 876.834,508.5 823.168,508.667 769.5,508.5C 769.5,456.833 769.5,405.167 769.5,353.5 Z"/></g>
<g><path style="opacity:0.995" fill="#ed3d37" d="M 970.5,353.5 C 983.504,353.333 996.504,353.5 1009.5,354C 1039,384.833 1068.5,415.667 1098,446.5C 1101.27,451.384 1104.77,456.051 1108.5,460.5C 1109.5,424.84 1109.83,389.173 1109.5,353.5C 1121.5,353.5 1133.5,353.5 1145.5,353.5C 1145.5,405.167 1145.5,456.833 1145.5,508.5C 1133.83,508.667 1122.16,508.5 1110.5,508C 1076.94,472.362 1043.27,436.862 1009.5,401.5C 1008.5,437.16 1008.17,472.827 1008.5,508.5C 996.5,508.5 984.5,508.5 972.5,508.5C 972.667,462.165 972.5,415.832 972,369.5C 971.17,364.192 970.67,358.859 970.5,353.5 Z"/></g>
<g><path style="opacity:0.99" fill="#ed3d37" d="M 1170.5,353.5 C 1227.83,353.5 1285.17,353.5 1342.5,353.5C 1342.5,362.167 1342.5,370.833 1342.5,379.5C 1319.83,379.5 1297.17,379.5 1274.5,379.5C 1274.5,422.5 1274.5,465.5 1274.5,508.5C 1262.83,508.5 1251.17,508.5 1239.5,508.5C 1238.64,465.506 1238.31,422.506 1238.5,379.5C 1215.83,379.5 1193.17,379.5 1170.5,379.5C 1170.5,370.833 1170.5,362.167 1170.5,353.5 Z"/></g>
<g><path style="opacity:0.984" fill="#ee3d37" d="M 1368.5,353.5 C 1423.17,353.5 1477.83,353.5 1532.5,353.5C 1532.5,362.167 1532.5,370.833 1532.5,379.5C 1489.5,379.5 1446.5,379.5 1403.5,379.5C 1403.5,391.167 1403.5,402.833 1403.5,414.5C 1436.17,414.5 1468.83,414.5 1501.5,414.5C 1501.5,423.5 1501.5,432.5 1501.5,441.5C 1468.83,441.5 1436.17,441.5 1403.5,441.5C 1403.5,455.167 1403.5,468.833 1403.5,482.5C 1446.84,482.167 1490.17,482.5 1533.5,483.5C 1537.11,490.379 1540.44,497.379 1543.5,504.5C 1543.29,505.086 1542.96,505.586 1542.5,506C 1537.92,507.145 1533.25,507.811 1528.5,508C 1475.17,508.5 1421.83,508.667 1368.5,508.5C 1368.5,456.833 1368.5,405.167 1368.5,353.5 Z"/></g>
<g><path style="opacity:0.991" fill="#ed3d37" d="M 1568.5,353.5 C 1611.83,353.333 1655.17,353.5 1698.5,354C 1714.94,355.447 1725.77,363.947 1731,379.5C 1734.23,393.516 1734.23,407.516 1731,421.5C 1724.62,438.861 1712.12,448.361 1693.5,450C 1705.45,458.281 1717.12,466.948 1728.5,476C 1738.98,482.285 1750.31,485.785 1762.5,486.5C 1761.54,493.845 1759.87,501.011 1757.5,508C 1751.18,509.976 1744.68,510.809 1738,510.5C 1723.93,511.529 1711.43,507.695 1700.5,499C 1687.03,484.189 1672.36,470.856 1656.5,459C 1640.64,451.855 1623.97,448.688 1606.5,449.5C 1606.5,469.167 1606.5,488.833 1606.5,508.5C 1594.83,508.5 1583.17,508.5 1571.5,508.5C 1571.67,463.165 1571.5,417.832 1571,372.5C 1570.25,366.142 1569.41,359.809 1568.5,353.5 Z M 1606.5,379.5 C 1633.56,379.026 1660.56,379.526 1687.5,381C 1692.84,383.007 1696,386.841 1697,392.5C 1702.02,411.672 1694.86,422.172 1675.5,424C 1653.17,425.826 1630.84,425.826 1608.5,424C 1606.53,409.41 1605.86,394.576 1606.5,379.5 Z"/></g>
</svg>
