<svg width="118" height="42" viewBox="0 0 118 42" fill="none" xmlns="http://www.w3.org/2000/svg">
<g clip-path="url(#clip0_803_712)">
<path d="M46.9996 8.40002H40.5996V30H46.9996V8.40002Z" fill="#006EB6"/>
<path d="M22.7002 21.6C22.7002 24.1 22.0002 26.2 20.5002 27.7C19.0002 29.2 17.0002 30 14.4002 30H0.200195V0.5H12.1002C13.7002 0.5 15.0002 0.7 16.1002 1C17.2002 1.4 18.2002 1.8 18.9002 2.5C19.6002 3.1 20.1002 3.8 20.5002 4.7C20.8002 5.5 21.0002 6.4 21.0002 7.4C21.0002 8.5 20.8002 9.5 20.5002 10.4C20.1002 11.3 19.7002 12.1 19.2002 12.7C18.7002 13.3 18.1002 13.7 17.6002 13.9C19.3002 14.7 20.6002 15.7 21.4002 16.9C22.2002 18.1 22.7002 19.7 22.7002 21.6ZM14.0002 9C14.0002 7.6 13.6002 6.7 12.8002 6.2C12.0002 5.7 10.8002 5.5 9.1002 5.5H7.6002V12.5H9.2002C10.9002 12.5 12.1002 12.3 12.9002 11.8C13.6002 11.4 14.0002 10.4 14.0002 9ZM15.2002 21.2C15.2002 18.7 13.7002 17.4 10.6002 17.4H7.6002V25H10.6002C13.7002 25 15.2002 23.8 15.2002 21.2Z" fill="#006EB6"/>
<path d="M39.7002 9.5L37.3002 17.2C36.3002 16.1 35.3002 15.5 34.3002 15.5C33.4002 15.5 32.6002 15.9 32.0002 16.6C31.3002 17.3 30.7002 18.7 30.1002 20.6V29.9H23.7002V8.4H30.1002V13.6C30.5002 12.3 31.2002 11.1 32.2002 9.8C33.2002 8.6 34.4002 8 35.8002 8C36.5002 8 37.2002 8.1 37.7002 8.4C38.3002 8.6 39.0002 9 39.7002 9.5Z" fill="#006EB6"/>
<path d="M63.8004 28.7C63.1004 29.1 62.2004 29.5 61.1004 29.8C59.9004 30.2 58.8004 30.3 57.7004 30.3C53.1004 30.3 50.8004 27.6 50.8004 22.2V13.6H47.9004V12.3L56.5004 1.90002H57.2004V8.40002H63.3004V13.7H57.2004V20.6C57.2004 21.4 57.2004 22.1 57.3004 22.6C57.4004 23.1 57.6004 23.5 58.0004 23.8C58.4004 24.1 59.0004 24.3 59.8004 24.3C60.8004 24.3 62.2004 23.8 63.8004 22.8V28.7Z" fill="#006EB6"/>
<path d="M84.3002 28.9C83.4002 29.3 82.5002 29.7 81.7002 30C80.9002 30.3 79.9002 30.4 78.8002 30.4C77.7002 30.4 77.0002 30.2 76.6002 29.7C76.2002 29.3 75.9002 28.7 75.7002 28.1C75.0002 28.8 74.2002 29.3 73.4002 29.7C72.6002 30.1 71.5002 30.4 70.1002 30.4C68.8002 30.4 67.7002 30.1 66.9002 29.6C66.1002 29.1 65.5002 28.4 65.2002 27.5C64.9002 26.7 64.7002 25.8 64.7002 24.9C64.7002 23.6 65.0002 22.5 65.5002 21.6C66.1002 20.7 66.8002 20 67.8002 19.5C68.7002 19 70.0002 18.4 71.6002 17.8C72.5002 17.5 73.2002 17.2 73.6002 17C74.1002 16.8 74.4002 16.7 74.6002 16.6C74.8002 16.5 75.1002 16.4 75.3002 16.2C75.3002 15.2 75.1002 14.3 74.8002 13.7C74.4002 13.1 73.7002 12.8 72.5002 12.8C71.1002 12.8 69.8002 13.2 68.6002 13.9C67.4002 14.6 66.3002 15.6 65.3002 16.8V10.9C66.1002 10.2 67.0002 9.70002 67.9002 9.20002C68.8002 8.80002 69.8002 8.50002 70.8002 8.20002C71.8002 8.00002 72.8002 7.90002 73.9002 7.90002C76.5002 7.90002 78.5002 8.50002 79.8002 9.70002C81.1002 10.9 81.8002 12.6 81.8002 14.7V23C81.8002 23.8 81.9002 24.4 82.0002 24.8C82.1002 25.2 82.3002 25.4 82.7002 25.4C83.1002 25.4 83.7002 25.2 84.3002 24.8V28.9ZM75.4002 24.7V19.6C73.9002 20.3 72.8002 21 72.1002 21.6C71.4002 22.2 71.1002 23 71.1002 24C71.1002 24.7 71.3002 25.3 71.6002 25.7C71.9002 26.1 72.4002 26.3 72.8002 26.3C73.2002 26.3 73.7002 26.2 74.1002 25.9C74.5002 25.5 74.9002 25.1 75.4002 24.7Z" fill="#006EB6"/>
<path d="M117.401 29.9H111.001V18.4C111.001 16.9 110.801 15.7 110.401 15C110.001 14.3 109.301 13.9 108.401 13.9C107.501 13.9 106.801 14.2 106.201 14.9C105.601 15.5 105.101 16.4 104.501 17.3V30H98.1006V18.4C98.1006 16.9 97.9006 15.8 97.5006 15C97.1006 14.2 96.4006 13.8 95.4006 13.8C94.9006 13.8 94.5006 13.9 94.1006 14.1C93.7006 14.3 93.4006 14.6 93.1006 14.9C92.9006 15.2 92.5006 15.6 92.2006 16.2C91.8006 16.8 91.6006 17.1 91.5006 17.2V29.9H85.1006V8.4H91.5006V11.5C92.5006 10.3 93.4006 9.4 94.4006 8.9C95.5006 8.2 96.7006 8 98.0006 8C98.6006 8 99.2006 8.1 99.8006 8.2C100.401 8.3 100.901 8.6 101.401 8.9C101.901 9.2 102.401 9.7 102.901 10.2C103.301 10.8 103.701 11.4 103.901 12.2C104.901 10.8 106.001 9.8 107.101 9.1C108.201 8.4 109.501 8 110.901 8C112.301 8 113.601 8.3 114.501 9C115.501 9.7 116.201 10.7 116.701 12C117.201 13.3 117.401 14.9 117.401 16.8V29.9Z" fill="#006EB6"/>
<path d="M47.1 3.3C47.1 5.1 45.6 6.6 43.8 6.6C42 6.6 40.5 5.1 40.5 3.3C40.5 1.5 42 0 43.8 0C45.6 0 47.1 1.5 47.1 3.3Z" fill="#E20613"/>
<path d="M4.6 39.8L3.6 36L2.7 39.8H1.5L0 34.2H1.2L2.1 38L3.1 34.2H4.2L5.2 38L6.1 34.2H7.3L5.8 39.8H4.6Z" fill="#E20613"/>
<path d="M9.00039 39.8H7.90039V35.8H9.00039V39.8ZM7.90039 34.2H9.00039V35.1H7.90039V34.2Z" fill="#E20613"/>
<path d="M12.3002 35.7V36.4H11.5002V38.4C11.5002 38.6 11.5002 38.7 11.6002 38.8C11.7002 38.9 11.8002 38.9 12.0002 38.9C12.1002 38.9 12.1002 38.9 12.2002 38.9C12.3002 38.9 12.3002 38.9 12.4002 38.9V39.8C12.3002 39.8 12.2002 39.8 12.1002 39.8C12.0002 39.8 11.9002 39.8 11.8002 39.8C11.6002 39.8 11.5002 39.8 11.3002 39.8C11.1002 39.8 11.0002 39.7 10.9002 39.7C10.8002 39.6 10.7002 39.5 10.6002 39.4C10.5002 39.3 10.5002 39.1 10.5002 38.9V36.5H9.7002V35.8H10.4002V34.6H11.5002V35.8H12.3002V35.7Z" fill="#E20613"/>
<path d="M14.1002 34.2V36.3C14.2002 36.1 14.4002 35.9 14.6002 35.8C14.8002 35.7 15.0002 35.6 15.2002 35.6C15.5002 35.6 15.7002 35.6 15.9002 35.7C16.1002 35.8 16.2002 35.9 16.3002 36C16.4002 36.2 16.5002 36.3 16.5002 36.5C16.5002 36.7 16.6002 36.9 16.6002 37.2V39.7H15.5002V37.4C15.5002 37.1 15.4002 36.8 15.3002 36.7C15.2002 36.5 15.0002 36.5 14.7002 36.5C14.4002 36.5 14.2002 36.6 14.0002 36.8C13.9002 37 13.8002 37.3 13.8002 37.7V39.8H12.7002V34.2H14.1002Z" fill="#E20613"/>
<path d="M21.4996 41C21.2996 41.1 20.9996 41.2 20.5996 41.2C20.4996 41.2 20.3996 41.2 20.2996 41.2C20.1996 41.2 20.0996 41.2 19.9996 41.2V40.3C20.0996 40.3 20.1996 40.3 20.2996 40.3C20.3996 40.3 20.4996 40.3 20.5996 40.3C20.6996 40.3 20.8996 40.2 20.8996 40.1C20.9996 40 20.9996 39.9 20.9996 39.8C20.9996 39.7 20.9996 39.6 20.9996 39.6L19.5996 35.8H20.7996L21.6996 38.6L22.5996 35.8H23.6996L21.9996 40.3C21.8996 40.6 21.6996 40.8 21.4996 41Z" fill="#E20613"/>
<path d="M25.1996 38.2C25.1996 38.4 25.2996 38.5 25.3996 38.6C25.4996 38.7 25.5996 38.8 25.6996 38.9C25.7996 39 25.9996 39 26.1996 39C26.3996 39 26.4996 39 26.6996 38.9C26.7996 38.8 26.8996 38.7 26.9996 38.6C27.0996 38.5 27.0996 38.3 27.1996 38.2C27.1996 38.1 27.1996 37.9 27.1996 37.7C27.1996 37.5 27.1996 37.4 27.1996 37.2C27.1996 37 27.0996 36.9 26.9996 36.8C26.8996 36.7 26.7996 36.6 26.6996 36.5C26.5996 36.4 26.3996 36.4 26.1996 36.4C25.9996 36.4 25.8996 36.4 25.6996 36.5C25.5996 36.6 25.4996 36.7 25.3996 36.8C25.2996 36.9 25.2996 37.1 25.1996 37.2C25.1996 37.4 25.1996 37.5 25.1996 37.7C25.1996 37.9 25.1996 38.1 25.1996 38.2ZM24.1996 36.9C24.2996 36.6 24.3996 36.4 24.5996 36.2C24.7996 36 24.9996 35.9 25.2996 35.8C25.5996 35.7 25.7996 35.7 26.1996 35.7C26.4996 35.7 26.7996 35.7 27.0996 35.8C27.3996 35.9 27.5996 36.1 27.7996 36.2C27.9996 36.4 28.0996 36.6 28.1996 36.9C28.2996 37.2 28.2996 37.5 28.2996 37.8C28.2996 38.1 28.1996 38.4 28.1996 38.7C28.0996 39 27.9996 39.2 27.7996 39.4C27.5996 39.6 27.3996 39.7 27.0996 39.8C26.7996 39.9 26.5996 39.9 26.1996 39.9C25.8996 39.9 25.5996 39.9 25.2996 39.8C24.9996 39.7 24.7996 39.6 24.5996 39.4C24.3996 39.2 24.2996 39 24.1996 38.7C24.0996 38.4 24.0996 38.2 24.0996 37.8C24.0996 37.4 24.0996 37.1 24.1996 36.9Z" fill="#E20613"/>
<path d="M31.8002 39.8V39.2C31.7002 39.4 31.5002 39.6 31.3002 39.7C31.1002 39.8 30.9002 39.9 30.6002 39.9C30.3002 39.9 30.1002 39.9 29.9002 39.8C29.7002 39.7 29.6002 39.6 29.5002 39.5C29.4002 39.3 29.3002 39.2 29.3002 39C29.3002 38.8 29.2002 38.6 29.2002 38.3V35.8H30.3002V38C30.3002 38.3 30.4002 38.6 30.5002 38.8C30.6002 39 30.8002 39 31.0002 39C31.3002 39 31.5002 38.9 31.7002 38.7C31.8002 38.5 31.9002 38.2 31.9002 37.8V35.7H33.0002V39.7H31.8002V39.8Z" fill="#E20613"/>
<path d="M38.5996 36.7C38.4996 36.5 38.2996 36.5 37.9996 36.5C37.7996 36.5 37.6996 36.5 37.5996 36.6C37.4996 36.7 37.3996 36.7 37.2996 36.8C37.1996 36.9 37.1996 37 37.1996 37.1C37.1996 37.2 37.0996 37.3 37.0996 37.4H38.8996C38.8996 37 38.7996 36.8 38.5996 36.7ZM37.3996 38.8C37.5996 39 37.7996 39 38.0996 39C38.2996 39 38.4996 38.9 38.6996 38.8C38.8996 38.7 38.9996 38.6 38.9996 38.4H39.9996C39.8996 38.9 39.5996 39.2 39.2996 39.4C38.9996 39.6 38.5996 39.7 38.0996 39.7C37.7996 39.7 37.4996 39.7 37.1996 39.6C36.8996 39.5 36.6996 39.3 36.5996 39.2C36.3996 39 36.2996 38.8 36.1996 38.5C36.0996 38.2 36.0996 38 36.0996 37.6C36.0996 37.3 36.0996 37 36.1996 36.8C36.2996 36.5 36.3996 36.3 36.5996 36.1C36.7996 35.9 36.9996 35.8 37.2996 35.6C37.5996 35.5 37.7996 35.4 38.0996 35.4C38.3996 35.4 38.6996 35.5 38.9996 35.6C39.2996 35.7 39.4996 35.9 39.5996 36.1C39.7996 36.3 39.8996 36.6 39.9996 36.9C39.9996 37.4 39.9996 37.7 39.9996 38H37.0996C37.0996 38.4 37.1996 38.6 37.3996 38.8Z" fill="#E20613"/>
<path d="M41.8004 39.8L40.4004 35.7H41.6004L42.4004 38.5H42.5004L43.3004 35.7H44.4004L43.1004 39.8H41.8004Z" fill="#E20613"/>
<path d="M47.5004 36.7C47.4004 36.5 47.2004 36.5 46.9004 36.5C46.7004 36.5 46.6004 36.5 46.5004 36.6C46.4004 36.7 46.3004 36.7 46.2004 36.8C46.1004 36.9 46.0004 36.9 46.0004 37C46.0004 37.1 46.0004 37.2 45.9004 37.3H47.7004C47.7004 37 47.6004 36.8 47.5004 36.7ZM46.2004 38.8C46.4004 39 46.6004 39 46.9004 39C47.1004 39 47.3004 38.9 47.5004 38.8C47.7004 38.7 47.8004 38.6 47.8004 38.4H48.8004C48.6004 38.9 48.4004 39.2 48.1004 39.4C47.8004 39.6 47.4004 39.7 46.9004 39.7C46.6004 39.7 46.3004 39.7 46.0004 39.6C45.7004 39.5 45.5004 39.3 45.4004 39.2C45.2004 39 45.1004 38.8 45.0004 38.5C44.9004 38.2 44.9004 38 44.9004 37.6C44.9004 37.3 44.9004 37 45.0004 36.8C45.1004 36.5 45.2004 36.3 45.4004 36.1C45.6004 35.9 45.8004 35.8 46.1004 35.6C46.3004 35.5 46.6004 35.4 46.9004 35.4C47.2004 35.4 47.5004 35.5 47.8004 35.6C48.1004 35.7 48.3004 35.9 48.4004 36.1C48.6004 36.3 48.7004 36.6 48.8004 36.9C48.9004 37.2 48.9004 37.5 48.9004 37.8H46.0004C46.0004 38.4 46.0004 38.6 46.2004 38.8Z" fill="#E20613"/>
<path d="M50.6996 35.7V36.5C50.6996 36.4 50.7996 36.3 50.8996 36.1C50.9996 36 51.0996 35.9 51.1996 35.8C51.2996 35.7 51.3996 35.7 51.5996 35.6C51.6996 35.6 51.8996 35.5 51.9996 35.5C52.0996 35.5 52.0996 35.5 52.1996 35.5V36.5C52.0996 36.5 52.0996 36.5 51.9996 36.5C51.8996 36.5 51.8996 36.5 51.7996 36.5C51.5996 36.5 51.3996 36.5 51.2996 36.6C51.1996 36.7 50.9996 36.8 50.9996 36.9C50.8996 37 50.7996 37.2 50.7996 37.3C50.7996 37.5 50.6996 37.6 50.6996 37.8V39.6H49.5996V35.6H50.6996V35.7Z" fill="#E20613"/>
<path d="M54.3004 41C54.1004 41.1 53.8004 41.2 53.4004 41.2C53.3004 41.2 53.2004 41.2 53.1004 41.2C53.0004 41.2 52.9004 41.2 52.8004 41.2V40.3C52.9004 40.3 53.0004 40.3 53.1004 40.3C53.2004 40.3 53.3004 40.3 53.4004 40.3C53.5004 40.3 53.7004 40.2 53.7004 40.1C53.8004 40 53.8004 39.9 53.8004 39.8C53.8004 39.7 53.8004 39.6 53.8004 39.6L52.4004 35.8H53.6004L54.5004 38.6L55.4004 35.8H56.5004L54.8004 40.4C54.7004 40.6 54.5004 40.8 54.3004 41Z" fill="#E20613"/>
<path d="M60.2996 38.8C60.2996 38.9 60.3996 39 60.4996 39C60.5996 39 60.6996 39.1 60.7996 39.1C60.8996 39.1 60.9996 39.1 61.0996 39.1C61.1996 39.1 61.2996 39.1 61.2996 39.1C61.3996 39.1 61.4996 39.1 61.4996 39C61.5996 39 61.5996 38.9 61.6996 38.9C61.6996 38.8 61.7996 38.7 61.7996 38.7C61.7996 38.5 61.6996 38.4 61.4996 38.3C61.2996 38.2 60.9996 38.1 60.5996 38C60.3996 38 60.2996 37.9 60.0996 37.9C59.8996 37.8 59.7996 37.8 59.6996 37.7C59.5996 37.6 59.4996 37.5 59.3996 37.4C59.2996 37.3 59.2996 37.1 59.2996 37C59.2996 36.7 59.3996 36.5 59.4996 36.4C59.5996 36.2 59.6996 36.1 59.8996 36C60.0996 35.9 60.1996 35.8 60.4996 35.8C60.6996 35.8 60.8996 35.7 61.0996 35.7C61.2996 35.7 61.4996 35.7 61.6996 35.8C61.8996 35.8 62.0996 35.9 62.1996 36C62.3996 36.1 62.4996 36.2 62.5996 36.4C62.6996 36.6 62.7996 36.8 62.7996 37H61.6996C61.6996 36.8 61.5996 36.6 61.4996 36.6C61.3996 36.5 61.1996 36.5 60.9996 36.5C60.8996 36.5 60.8996 36.5 60.7996 36.5C60.6996 36.5 60.6996 36.5 60.5996 36.6C60.4996 36.6 60.4996 36.7 60.3996 36.7C60.3996 36.7 60.2996 36.8 60.2996 36.9C60.2996 37 60.2996 37.1 60.3996 37.1C60.4996 37.2 60.5996 37.2 60.6996 37.2C60.7996 37.2 60.9996 37.3 61.0996 37.3C61.2996 37.3 61.3996 37.4 61.5996 37.4C61.7996 37.4 61.8996 37.5 62.0996 37.5C62.2996 37.6 62.3996 37.6 62.4996 37.7C62.5996 37.8 62.6996 37.9 62.7996 38C62.8996 38.1 62.8996 38.3 62.8996 38.5C62.8996 38.8 62.7996 39 62.6996 39.2C62.5996 39.4 62.3996 39.5 62.2996 39.6C62.0996 39.7 61.8996 39.8 61.6996 39.8C61.4996 39.9 61.2996 39.9 60.9996 39.9C60.7996 39.9 60.4996 39.9 60.2996 39.8C60.0996 39.8 59.8996 39.7 59.6996 39.6C59.4996 39.5 59.3996 39.3 59.2996 39.2C59.1996 39 59.0996 38.8 59.0996 38.5H60.1996C60.1996 38.6 60.1996 38.7 60.2996 38.8Z" fill="#E20613"/>
<path d="M65.8998 35.7V36.4H65.0998V38.4C65.0998 38.6 65.0998 38.7 65.1998 38.8C65.2998 38.9 65.3998 38.9 65.5998 38.9C65.6998 38.9 65.6998 38.9 65.7998 38.9C65.7998 38.9 65.8998 38.9 65.9998 38.9V39.8C65.8998 39.8 65.7998 39.8 65.6998 39.8C65.5998 39.8 65.4998 39.8 65.3998 39.8C65.1998 39.8 65.0998 39.8 64.8998 39.8C64.6998 39.8 64.5998 39.7 64.4998 39.7C64.3998 39.6 64.2998 39.5 64.1998 39.4C63.9998 39.2 63.9998 39.1 63.9998 38.9V36.5H63.2998V35.8H63.9998V34.6H65.0998V35.8H65.8998V35.7Z" fill="#E20613"/>
<path d="M69.0004 36.7C68.9004 36.5 68.7004 36.5 68.4004 36.5C68.2004 36.5 68.1004 36.5 68.0004 36.6C67.9004 36.7 67.8004 36.7 67.7004 36.8C67.6004 36.9 67.6004 37 67.6004 37.1C67.6004 37.2 67.6004 37.3 67.5004 37.4H69.3004C69.2004 37 69.1004 36.8 69.0004 36.7ZM67.7004 38.8C67.9004 39 68.1004 39 68.4004 39C68.6004 39 68.8004 38.9 69.0004 38.8C69.2004 38.7 69.3004 38.6 69.3004 38.4H70.3004C70.1004 38.9 69.9004 39.2 69.6004 39.4C69.3004 39.6 68.9004 39.7 68.4004 39.7C68.1004 39.7 67.8004 39.7 67.5004 39.6C67.2004 39.5 67.0004 39.3 66.9004 39.2C66.7004 39 66.6004 38.8 66.5004 38.5C66.4004 38.2 66.4004 38 66.4004 37.6C66.4004 37.3 66.4004 37 66.5004 36.8C66.6004 36.5 66.7004 36.3 66.9004 36.1C67.1004 35.9 67.3004 35.8 67.6004 35.6C67.8004 35.5 68.1004 35.4 68.4004 35.4C68.7004 35.4 69.0004 35.5 69.3004 35.6C69.6004 35.7 69.8004 35.9 69.9004 36.1C70.1004 36.3 70.2004 36.6 70.2004 36.9C70.3004 37.2 70.3004 37.5 70.3004 37.8H67.4004C67.5004 38.4 67.6004 38.6 67.7004 38.8Z" fill="#E20613"/>
<path d="M73.7002 38.9C73.8002 38.8 73.9002 38.7 74.0002 38.6C74.1002 38.5 74.1002 38.3 74.2002 38.2C74.2002 38 74.2002 37.9 74.2002 37.7C74.2002 37.5 74.2002 37.4 74.2002 37.2C74.2002 37 74.1002 36.9 74.0002 36.8C73.9002 36.7 73.8002 36.6 73.7002 36.5C73.6002 36.4 73.4002 36.4 73.2002 36.4C73.0002 36.4 72.9002 36.4 72.8002 36.5C72.7002 36.6 72.6002 36.7 72.5002 36.8C72.4002 36.9 72.4002 37.1 72.4002 37.2C72.4002 37.4 72.3002 37.5 72.3002 37.7C72.3002 37.9 72.3002 38 72.4002 38.2C72.4002 38.4 72.5002 38.5 72.6002 38.6C72.7002 38.7 72.8002 38.8 72.9002 38.9C72.9002 39 73.0002 39 73.2002 39C73.4002 39 73.5002 39 73.7002 38.9ZM72.2002 35.7V36.2C72.3002 36 72.5002 35.8 72.7002 35.7C72.9002 35.6 73.1002 35.6 73.4002 35.6C73.7002 35.6 74.0002 35.7 74.2002 35.8C74.4002 35.9 74.6002 36.1 74.8002 36.3C74.9002 36.5 75.1002 36.7 75.1002 37C75.2002 37.3 75.2002 37.5 75.2002 37.8C75.2002 38.1 75.2002 38.3 75.1002 38.6C75.0002 38.9 74.9002 39.1 74.8002 39.3C74.6002 39.5 74.5002 39.6 74.3002 39.8C74.1002 39.9 73.8002 40 73.5002 40C73.3002 40 73.0002 40 72.8002 39.9C72.6002 39.8 72.4002 39.6 72.3002 39.4V41.3H71.2002V35.8H72.2002V35.7Z" fill="#E20613"/>
<path d="M79.4002 38.2C79.4002 38.4 79.5002 38.5 79.6002 38.6C79.7002 38.7 79.8002 38.8 79.9002 38.9C80.0002 39 80.2002 39 80.3002 39C80.5002 39 80.6002 39 80.8002 38.9C80.9002 38.8 81.0002 38.7 81.1002 38.6C81.2002 38.5 81.2002 38.3 81.3002 38.2C81.3002 38.1 81.3002 37.9 81.3002 37.7C81.3002 37.5 81.3002 37.4 81.3002 37.2C81.3002 37 81.2002 36.9 81.1002 36.8C81.0002 36.7 80.9002 36.6 80.8002 36.5C80.7002 36.4 80.5002 36.4 80.3002 36.4C80.1002 36.4 80.0002 36.4 79.8002 36.5C79.7002 36.6 79.6002 36.7 79.5002 36.8C79.4002 36.9 79.4002 37.1 79.3002 37.2C79.3002 37.4 79.3002 37.5 79.3002 37.7C79.4002 37.9 79.4002 38.1 79.4002 38.2ZM78.4002 36.9C78.5002 36.6 78.6002 36.4 78.8002 36.2C79.0002 36 79.2002 35.9 79.5002 35.8C79.8002 35.7 80.0002 35.7 80.4002 35.7C80.7002 35.7 81.0002 35.7 81.3002 35.8C81.6002 35.9 81.8002 36.1 82.0002 36.2C82.2002 36.4 82.3002 36.6 82.4002 36.9C82.5002 37.2 82.5002 37.5 82.5002 37.8C82.5002 38.1 82.4002 38.4 82.4002 38.7C82.3002 39 82.2002 39.2 82.0002 39.4C81.8002 39.6 81.6002 39.7 81.3002 39.8C81.0002 39.9 80.8002 39.9 80.4002 39.9C80.1002 39.9 79.8002 39.9 79.5002 39.8C79.3002 39.7 79.0002 39.6 78.8002 39.4C78.6002 39.2 78.5002 39 78.4002 38.7C78.3002 38.4 78.2002 38.2 78.2002 37.8C78.3002 37.4 78.3002 37.1 78.4002 36.9Z" fill="#E20613"/>
<path d="M82.9004 36.5V35.8H83.6004V35.5C83.6004 35.1 83.7004 34.8 83.9004 34.6C84.1004 34.4 84.5004 34.3 84.9004 34.3C85.0004 34.3 85.1004 34.3 85.2004 34.3C85.3004 34.3 85.4004 34.3 85.5004 34.3V35C85.4004 35 85.2004 35 85.1004 35C85.0004 35 84.8004 35 84.8004 35.1C84.7004 35.2 84.7004 35.3 84.7004 35.5V35.7H85.5004V36.4H84.7004V39.7H83.6004V36.4H82.9004V36.5Z" fill="#E20613"/>
<path d="M90.6 35.7V36.4H89.8V38.4C89.8 38.6 89.8 38.7 89.9 38.8C90 38.9 90.1 38.9 90.3 38.9C90.4 38.9 90.4 38.9 90.5 38.9C90.6 38.9 90.6 38.9 90.7 38.9V39.8C90.6 39.8 90.5 39.8 90.4 39.8C90.3 39.8 90.2 39.8 90.1 39.8C89.9 39.8 89.8 39.8 89.6 39.8C89.4 39.8 89.3 39.7 89.2 39.7C89.1 39.6 89 39.5 88.9 39.4C88.8 39.3 88.8 39.1 88.8 38.9V36.5H88V35.8H88.7V34.6H89.8V35.8H90.6V35.7Z" fill="#E20613"/>
<path d="M92.4002 34.2V36.3C92.5002 36.1 92.7002 35.9 92.9002 35.8C93.1002 35.7 93.3002 35.6 93.5002 35.6C93.8002 35.6 94.0002 35.6 94.2002 35.7C94.4002 35.8 94.5002 35.9 94.7002 36C94.8002 36.2 94.9002 36.3 94.9002 36.5C94.9002 36.7 95.0002 36.9 95.0002 37.2V39.7H93.9002V37.4C93.9002 37.1 93.8002 36.8 93.7002 36.7C93.6002 36.5 93.4002 36.5 93.2002 36.5C92.9002 36.5 92.7002 36.6 92.5002 36.8C92.4002 37 92.3002 37.3 92.3002 37.7V39.8H91.2002V34.2H92.4002Z" fill="#E20613"/>
<path d="M98.4004 36.7C98.3004 36.5 98.1004 36.5 97.8004 36.5C97.6004 36.5 97.5004 36.5 97.4004 36.6C97.3004 36.7 97.2004 36.7 97.1004 36.8C97.1004 36.9 97.0004 36.9 97.0004 37C97.0004 37.1 97.0004 37.2 96.9004 37.3H98.7004C98.7004 37 98.6004 36.8 98.4004 36.7ZM97.2004 38.8C97.4004 39 97.6004 39 97.9004 39C98.1004 39 98.3004 38.9 98.5004 38.8C98.7004 38.7 98.8004 38.6 98.8004 38.4H99.8004C99.6004 38.9 99.4004 39.2 99.1004 39.4C98.8004 39.6 98.4004 39.7 97.9004 39.7C97.6004 39.7 97.3004 39.7 97.0004 39.6C96.7004 39.5 96.5004 39.3 96.4004 39.2C96.2004 39 96.1004 38.8 96.0004 38.5C95.9004 38.2 95.9004 38 95.9004 37.6C95.9004 37.3 96.0004 37 96.0004 36.8C96.1004 36.5 96.2004 36.3 96.4004 36.1C96.6004 35.9 96.8004 35.8 97.0004 35.6C97.3004 35.5 97.5004 35.4 97.8004 35.4C98.1004 35.4 98.4004 35.5 98.7004 35.6C99.0004 35.7 99.2004 35.9 99.3004 36.1C99.5004 36.3 99.6004 36.6 99.7004 36.9C99.8004 37.2 99.8004 37.5 99.8004 37.8H96.9004C96.9004 38.4 97.0004 38.6 97.2004 38.8Z" fill="#E20613"/>
<path d="M106.4 39.8L105.7 37.1L105 39.8H103.9L102.6 35.7H103.7L104.5 38.5L105.2 35.7H106.2L106.9 38.5L107.7 35.7H108.8L107.6 39.8H106.4Z" fill="#E20613"/>
<path d="M111.8 37.9C111.7 37.9 111.7 37.9 111.6 38C111.5 38 111.4 38 111.3 38C111.2 38 111.1 38 111 38C110.9 38 110.8 38 110.8 38.1C110.7 38.1 110.7 38.2 110.6 38.2C110.5 38.2 110.5 38.3 110.5 38.4C110.5 38.5 110.4 38.6 110.4 38.7C110.4 38.8 110.4 38.9 110.5 38.9C110.5 39 110.6 39 110.6 39.1C110.7 39.1 110.7 39.2 110.8 39.2C110.9 39.2 111 39.2 111.1 39.2C111.3 39.2 111.5 39.2 111.6 39.1C111.7 39 111.8 38.9 111.9 38.8C112 38.7 112 38.6 112 38.5C112 38.4 112 38.3 112 38.2V37.8C111.9 37.8 111.8 37.9 111.8 37.9ZM109.6 36.3C109.7 36.1 109.9 36 110 35.9C110.2 35.8 110.4 35.7 110.6 35.7C110.8 35.7 111 35.6 111.3 35.6C111.5 35.6 111.7 35.6 111.9 35.6C112.1 35.6 112.3 35.7 112.5 35.8C112.7 35.9 112.8 36 112.9 36.1C113 36.2 113.1 36.4 113.1 36.7V38.8C113.1 39 113.1 39.2 113.1 39.3C113.1 39.5 113.2 39.6 113.2 39.7H112.1C112.1 39.6 112.1 39.6 112 39.5C112 39.4 112 39.4 112 39.3C111.8 39.5 111.6 39.6 111.4 39.7C111.2 39.8 110.9 39.8 110.7 39.8C110.5 39.8 110.3 39.8 110.2 39.7C110 39.7 109.9 39.6 109.8 39.5C109.7 39.4 109.6 39.3 109.5 39.1C109.4 38.9 109.4 38.8 109.4 38.6C109.4 38.4 109.4 38.2 109.5 38C109.6 37.9 109.7 37.7 109.8 37.6C109.9 37.5 110.1 37.4 110.2 37.4C110.4 37.4 110.5 37.3 110.7 37.3C110.9 37.3 111 37.3 111.2 37.2C111.4 37.2 111.5 37.2 111.6 37.1C111.7 37.1 111.8 37 111.9 37C112 36.9 112 36.8 112 36.7C112 36.6 112 36.5 111.9 36.4C111.9 36.3 111.8 36.3 111.7 36.2C111.6 36.2 111.6 36.1 111.5 36.1C111.4 36.1 111.3 36.1 111.2 36.1C111 36.1 110.8 36.1 110.7 36.2C110.6 36.3 110.5 36.4 110.5 36.7H109.4C109.4 36.7 109.5 36.5 109.6 36.3Z" fill="#E20613"/>
<path d="M115.5 41C115.3 41.1 115 41.2 114.6 41.2C114.5 41.2 114.4 41.2 114.3 41.2C114.2 41.2 114.1 41.2 114 41.2V40.3C114.1 40.3 114.2 40.3 114.3 40.3C114.4 40.3 114.5 40.3 114.6 40.3C114.7 40.3 114.9 40.2 114.9 40.1C115 40 115 39.9 115 39.8C115 39.7 115 39.6 114.9 39.6L113.5 35.8H114.7L115.6 38.6L116.5 35.8H117.6L115.9 40.4C115.9 40.6 115.8 40.8 115.5 41Z" fill="#E20613"/>
</g>
<defs>
<clipPath id="clip0_803_712">
<rect width="117.7" height="41.2" fill="white"/>
</clipPath>
</defs>
</svg>
