<svg width="104" height="53" viewBox="0 0 104 53" fill="none" xmlns="http://www.w3.org/2000/svg">
<g clip-path="url(#clip0_803_772)">
<path d="M25.4 44.3H24.5V51.9H25.4V44.3Z" fill="#C10230"/>
<path d="M27 44L32.7 49.9V44.3H33.6V52.2L27.9 46.3V51.9H27V44Z" fill="#C10230"/>
<path d="M38.5998 45.8C38.2998 45.3 37.9998 45.1 37.3998 45.1C36.7998 45.1 36.0998 45.5 36.0998 46.2C36.0998 46.8 36.6998 47.1 37.1998 47.3L37.6998 47.5C38.7998 47.9 39.5998 48.5 39.5998 49.8C39.5998 51.2 38.4998 52.2 37.1998 52.2C35.9998 52.2 34.9998 51.3 34.7998 50.1L35.7998 49.9C35.7998 50.7 36.4998 51.3 37.2998 51.3C38.0998 51.3 38.6998 50.6 38.6998 49.8C38.6998 49 37.9998 48.6 37.3998 48.4L36.7998 48C35.8998 47.6 35.0998 47.1 35.0998 46.1C35.0998 44.9 36.1998 44.1 37.2998 44.1C38.0998 44.1 38.7998 44.5 39.2998 45.3L38.5998 45.8Z" fill="#C10230"/>
<path d="M41.6 44.3V48.8C41.6 50 42 51.2 43.4 51.2C44.8 51.2 45.2 50 45.2 48.8V44.3H46.1V49.1C46.1 50.8 45.1 52.1 43.3 52.1C41.6 52.1 40.5 50.8 40.5 49.1V44.3H41.6Z" fill="#C10230"/>
<path d="M48.6998 47.9H48.9998C49.9998 47.9 50.9998 47.7 50.9998 46.5C50.9998 45.3 49.8998 45.1 48.8998 45.1H48.5998V47.9H48.6998ZM52.4998 51.9H51.2998L49.0998 48.7H48.6998V51.9H47.7998V44.3H48.9998C49.6998 44.3 50.3998 44.3 50.9998 44.7C51.5998 45.1 51.9998 45.8 51.9998 46.5C51.9998 47.6 51.2998 48.5 50.1998 48.6L52.4998 51.9Z" fill="#C10230"/>
<path d="M56.1004 46.1L54.7004 49.2H57.4004L56.1004 46.1ZM54.3004 50L53.4004 51.9H52.4004L56.0004 44L59.6004 51.9H58.6004L57.8004 50H54.3004Z" fill="#C10230"/>
<path d="M60.5 44L66.2 49.9V44.3H67.1V52.2L61.4 46.3V51.9H60.5V44Z" fill="#C10230"/>
<path d="M74.2002 45.8C73.7002 45.3 72.9002 45.1 72.2002 45.1C70.5002 45.1 69.2002 46.5 69.2002 48.2C69.2002 49.9 70.5002 51.3 72.2002 51.3C72.9002 51.3 73.7002 51 74.2002 50.5V51.6C73.6002 51.9 72.9002 52.1 72.2002 52.1C70.0002 52.1 68.2002 50.4 68.2002 48.2C68.2002 45.9 70.0002 44.2 72.2002 44.2C72.9002 44.2 73.5002 44.4 74.1002 44.7V45.8" fill="#C10230"/>
<path d="M75.5996 44.3H79.5996V45.2H76.4996V47.3H79.4996V48.2H76.4996V51.1H79.5996V51.9H75.5996V44.3Z" fill="#C10230"/>
<path d="M56.7002 35.9H61.3002V20.5L56.7002 24.6V35.9Z" fill="#C10230"/>
<path d="M29.8 28.9C29.8 30.4 29 32.4 26.6 32.4C25.6 32.4 23.5 32.3 23.5 29.5V20.5L19 24.6C19 24.6 19 31.3 19 31.7C19 32.7 19.8 36 24.2 36C25.2 36 28 35.5 29.8 33.7V35.8H34.3V20.5L29.8 24.6V28.9Z" fill="#C10230"/>
<path d="M64 35.9H68.6V8.5L64 13.1V35.9Z" fill="#C10230"/>
<path d="M77.7996 20.3C75.0996 20.3 70.5996 22 70.5996 29.1C70.5996 29.9 70.8996 36.6 78.6996 36.6C79.0996 36.6 83.6996 36.4 85.8996 32.8L81.9996 31.7C81.9996 31.7 81.5996 33.8 78.4996 33.8C73.5996 33.8 74.0996 28.3 74.0996 28.3C74.0996 23.6 77.0996 23.3 78.0996 23.3C82.7996 23.3 82.2996 27 82.2996 27H76.1996L74.2996 29.7H85.8996C86.0996 29.6 87.5996 20.4 77.7996 20.3Z" fill="#C10230"/>
<path d="M94.0002 26.9L92.1002 29.6H103.7C103.7 29.6 105.2 20.3 95.4002 20.3C92.7002 20.3 88.2002 22 88.2002 29.1C88.2002 29.9 88.5002 36.6 96.3002 36.6C96.7002 36.6 101.3 36.4 103.5 32.8L99.7002 31.7C99.7002 31.7 99.3002 33.8 96.2002 33.8C91.3002 33.8 91.8002 28.3 91.8002 28.3C91.8002 23.6 94.8002 23.3 95.8002 23.3C100.5 23.3 100 27 100 27H94.0002" fill="#C10230"/>
<path d="M11 29.4C10.9 31.1 10.1 32 8.2 32.3H8.1C6.2 32 5.4 31.1 5.3 29.3V20.5L0 25.3V30.8C0.7 36.1 6.3 36.5 8.1 36.5C9.9 36.5 15.5 36.1 16.2 30.8V0L11 4.8V29.4Z" fill="#C10230"/>
<path d="M45.6 33.1C43.1 33.1 41.1 31 41.1 28.4C41.1 25.8 43.1 23.7 45.6 23.7C48.1 23.7 50.1 25.8 50.1 28.4C50.1 31 48.1 33.1 45.6 33.1ZM46.9 20.2C45.1 20.1 42.3 21.2 41.5 22.6V13.2V12.6L37 8.5V35.9H41.5V34.7C42.2 35.4 43.8 36.7 47.3 36.6C49.5 36.5 54.5 35.4 54.2 27.7C54.2 25.6 52.7 20.5 46.9 20.2Z" fill="#C10230"/>
</g>
<defs>
<clipPath id="clip0_803_772">
<rect width="103.9" height="52.2" fill="white"/>
</clipPath>
</defs>
</svg>
