<svg width="155" height="38" viewBox="0 0 155 38" fill="none" xmlns="http://www.w3.org/2000/svg">
<g clip-path="url(#clip0_803_748)">
<path d="M38.5996 36.6H39.5996V28.6H38.5996V27.3H41.9996V28.6H40.9996V36.6L42.0996 36.5V37.8H38.5996V36.6Z" fill="#EF4126"/>
<path d="M43.9 31.8C43.9 31.6 43.8 31.5 43.6 31.5H43V30.3H44.4C45 30.3 45.4 30.6 45.4 31.1V31.4C45.4 31.6 45.4 31.8 45.4 31.8C45.7 31.1 46.6 30.1 48.2 30.1C50 30.1 50.8 31.1 50.8 33V36.3C50.8 36.5 50.9 36.6 51.1 36.6H51.7V37.8H50.3C49.6 37.8 49.3 37.5 49.3 36.8V33.2C49.3 32.1 49.1 31.3 47.9 31.3C46.7 31.3 45.8 32.1 45.5 33.2C45.4 33.5 45.4 33.8 45.4 34.2V37.7H44L43.9 31.8Z" fill="#EF4126"/>
<path d="M53.2 35.7C53.2 35.7 54.1 36.8 55.5 36.8C56.2 36.8 56.8 36.5 56.8 35.8C56.8 34.4 52.7 34.6 52.7 32.2C52.7 30.7 54 30.1 55.5 30.1C56.4 30.1 58 30.4 58 31.6V32.3H56.7V31.9C56.7 31.5 56 31.3 55.6 31.3C54.8 31.3 54.2 31.6 54.2 32.2C54.2 33.6 58.3 33.3 58.3 35.8C58.3 37.1 57.1 38 55.5 38C53.5 38 52.5 36.7 52.5 36.7L53.2 35.7Z" fill="#EF4126"/>
<path d="M59.9996 31.8C59.9996 31.6 59.8996 31.5 59.6996 31.5H59.0996V30.3H60.4996C61.1996 30.3 61.4996 30.6 61.4996 31.2V34.8C61.4996 35.8 61.6996 36.7 62.8996 36.7C64.4996 36.7 65.3996 35.3 65.3996 33.8V30.3H66.7996V36.3C66.7996 36.5 66.8996 36.6 67.0996 36.6H67.6996V37.8H66.2996C65.6996 37.8 65.2996 37.5 65.2996 37V36.7C65.2996 36.5 65.2996 36.3 65.2996 36.3C64.9996 37 63.9996 38 62.4996 38C60.7996 38 59.8996 37.1 59.8996 35.1L59.9996 31.8Z" fill="#EF4126"/>
<path d="M69.2994 31.8C69.2994 31.6 69.1994 31.5 68.9994 31.5H68.3994V30.3H69.7994C70.4994 30.3 70.7994 30.6 70.7994 31.2V31.7C70.7994 32 70.7994 32.2 70.7994 32.2C71.1994 31.1 71.9994 30.2 73.1994 30.2C73.3994 30.2 73.5994 30.2 73.5994 30.2V31.6C73.5994 31.6 73.3994 31.6 73.1994 31.6C72.2994 31.6 71.3994 32.3 71.0994 33.4C70.9994 33.8 70.8994 34.3 70.8994 34.8V37.9H69.4994L69.2994 31.8Z" fill="#EF4126"/>
<path d="M76.7998 36.7C77.9998 36.7 78.7998 35.4 78.7998 34.3V34H78.3998C77.2998 34 75.2998 34.1 75.2998 35.5C75.3998 36.1 75.8998 36.7 76.7998 36.7ZM78.4998 33H78.7998V32.9C78.7998 31.6 78.2998 31.1 77.0998 31.1C76.6998 31.1 75.8998 31.2 75.8998 31.7V32.1H74.4998V31.4C74.4998 30.2 76.3998 30 77.0998 30C79.4998 30 80.1998 31.3 80.1998 33V36.2C80.1998 36.4 80.2998 36.5 80.4998 36.5H81.0998V37.7H79.6998C78.9998 37.7 78.7998 37.4 78.7998 36.8C78.7998 36.5 78.7998 36.3 78.7998 36.3C78.7998 36.3 78.1998 37.8 76.3998 37.8C75.0998 37.8 73.7998 37 73.7998 35.5C73.8998 33.2 77.1998 33 78.4998 33Z" fill="#EF4126"/>
<path d="M82.7994 31.7C82.7994 31.5 82.6994 31.4 82.4994 31.4H81.8994V30.2H83.2994C83.8994 30.2 84.2994 30.5 84.2994 31V31.3C84.2994 31.5 84.2994 31.7 84.2994 31.7C84.4994 31 85.3994 30 86.9994 30C88.7994 30 89.5994 31 89.5994 32.9V36.2C89.5994 36.4 89.6994 36.5 89.8994 36.5H90.4994V37.7H89.0994C88.3994 37.7 88.0994 37.4 88.0994 36.7V33.1C88.0994 32 87.8994 31.2 86.6994 31.2C85.4994 31.2 84.5994 32 84.2994 33.1C84.1994 33.4 84.1994 33.7 84.1994 34.1V37.6H82.6994L82.7994 31.7Z" fill="#EF4126"/>
<path d="M95.3998 29.9C96.2998 29.9 98.0998 30.3 98.0998 31.6V32.4H96.7998V32C96.7998 31.5 95.8998 31.2 95.3998 31.2C93.8998 31.2 92.7998 32.3 92.7998 33.9C92.7998 35.6 94.0998 36.6 95.4998 36.6C96.8998 36.6 97.7998 35.5 97.7998 35.5L98.3998 36.5C98.3998 36.5 97.2998 37.8 95.2998 37.8C92.8998 37.8 91.2998 36.1 91.2998 33.9C91.3998 31.7 92.9998 29.9 95.3998 29.9Z" fill="#EF4126"/>
<path d="M104.9 33C104.9 31.7 104.1 31.1 103.1 31.1C102 31.1 101.1 31.8 100.9 33H104.9ZM103.1 29.9C105.2 29.9 106.4 31.5 106.4 33.4C106.4 33.6 106.4 34 106.4 34H100.9C101 35.6 102.2 36.5 103.5 36.5C104.8 36.5 105.7 35.6 105.7 35.6L106.3 36.6C106.3 36.6 105.2 37.7 103.4 37.7C101 37.7 99.3997 36 99.3997 33.8C99.2997 31.5 101 29.9 103.1 29.9Z" fill="#EF4126"/>
<path d="M69.2002 13.3H64.1002L66.6002 7.40004L69.2002 13.3ZM65.2002 3.10004L57.7002 20.4H61.2002L62.9002 16.4H70.5002L72.2002 20.4H75.8002L68.2002 3.10004H65.2002Z" fill="#1A2454"/>
<path d="M81.3996 6.30003H84.4996C87.7996 6.30003 90.0996 8.50003 90.0996 11.8C90.0996 15 87.8996 17.2 84.4996 17.2H81.3996V6.30003ZM84.4996 3.20003H78.0996L78.1996 20.3H84.5996C89.8996 20.3 93.6996 16.7 93.6996 11.7C93.5996 6.70003 89.7996 3.10003 84.4996 3.20003Z" fill="#1A2454"/>
<path d="M100.276 3.09504L96.876 3.1048L96.9251 20.2048L100.325 20.195L100.276 3.09504Z" fill="#1A2454"/>
<path d="M111 10.1C107.8 9.30002 107.2 8.80002 107.2 7.70002C107.2 6.60002 108.2 5.90002 109.7 5.90002C111.1 5.90002 112.6 6.40002 114.1 7.60002L114.3 7.70002L116.1 5.10002L115.9 5.00002C114.1 3.60002 112.1 2.90002 109.7 2.90002C106.2 2.90002 103.8 5.00002 103.8 8.00002C103.8 11.2 105.9 12.3 109.5 13.2C112.6 13.9 113.1 14.5 113.1 15.6C113.1 16.7 112 17.5 110.4 17.5C108.5 17.5 107 16.9 105.3 15.4L105.1 15.3L103.1 17.7L103.3 17.8C105.3 19.6 107.8 20.5 110.4 20.5C114.2 20.5 116.6 18.4 116.6 15.2C116.5 12.5 114.9 11 111 10.1Z" fill="#1A2454"/>
<path d="M127.7 5.90001C130.8 5.90001 133.2 8.30001 133.2 11.6C133.2 14.8 130.9 17.2 127.8 17.3C124.7 17.3 122.3 14.9 122.3 11.6C122.3 8.30001 124.6 5.90001 127.7 5.90001ZM127.7 2.70001C122.7 2.70001 118.7 6.60001 118.8 11.6C118.8 16.6 122.7 20.4 127.7 20.4C132.7 20.4 136.7 16.5 136.6 11.5C136.7 6.50001 132.8 2.70001 127.7 2.70001Z" fill="#1A2454"/>
<path d="M151.5 14.1L142.8 3.00002H139.8V20.1H143.2L143.1 8.70002L152 20.1H154.8V2.90002L151.4 3.00002L151.5 14.1Z" fill="#1A2454"/>
<path d="M51.9 3.29999L47 11L42 3.29999H38.5L38.6 20.4H41.9V8.99999L45.7 14.7H48.2L52 8.89999V20.4H55.4V3.29999H51.9Z" fill="#1A2454"/>
<path d="M21 21.5L16.9 23.9C16.8 24 16.7 24 16.7 24C16.5 24.1 16.2 24.2 16 24.2C15.7 24.2 15.5 24.1 15.3 24.1C15.2 24.1 15.1 24 15 23.9L7.7 19.8C7.6 19.7 7.5 19.7 7.3 19.6C7 19.4 6.9 19.1 6.8 18.7V18.2V6.19999L2.8 3.79999L2.2 3.39999C2 3.29999 1.8 3.29999 1.6 3.29999C1.4 3.29999 1.2 3.29999 1 3.39999L0.7 3.49999C0.3 3.79999 0.1 4.19999 0 4.59999V4.89999L0.1 21.5C0.1 21.6 0.1 21.6 0.1 21.6V21.7C0.1 21.9 0.2 22.1 0.3 22.3C0.4 22.5 0.6 22.7 0.8 22.8L0.9 22.9L14.9 31C15 31.1 15.2 31.2 15.3 31.3C15.5 31.4 15.7 31.4 16 31.4C16.3 31.4 16.6 31.3 16.8 31.2L17 31.1L27.2 25.1L21 21.5Z" fill="#00A98E"/>
<path d="M31.8004 20.6C31.8004 20.5 31.8004 4.79998 31.8004 4.79998V4.49998C31.7004 4.09998 31.5004 3.69998 31.1004 3.39998L30.7004 3.19998C30.5004 3.09998 30.3004 3.09998 30.1004 3.09998C29.9004 3.09998 29.7004 3.09998 29.5004 3.19998L29.0004 3.59998L24.9004 5.69998V16.6L31.8004 20.6Z" fill="#00A98E"/>
<path d="M30.2004 3L25.0004 0.6L24.3004 0.3L23.9004 0.1C23.8004 0 23.6004 0 23.4004 0C23.1004 0 22.8004 0.1 22.6004 0.2L22.4004 0.3L16.9004 3.6L16.5004 3.8C16.3004 3.9 16.1004 4 15.9004 4C15.6004 4 15.4004 3.9 15.1004 3.8C15.0004 3.8 14.9004 3.7 14.8004 3.6L9.30039 0.4L9.10039 0.2C8.90039 0.1 8.60039 0 8.30039 0C8.10039 0 7.90039 0 7.80039 0.1L7.30039 0.3L6.70039 0.7L1.60039 3.1L0.900391 3.4C1.10039 3.3 1.30039 3.3 1.50039 3.3C1.70039 3.3 1.90039 3.3 2.10039 3.4C2.30039 3.5 15.0004 10.9 15.1004 10.9C15.3004 11 15.6004 11.1 15.9004 11.1C16.2004 11.1 16.5004 11 16.7004 10.9C16.8004 10.9 29.5004 3.4 29.7004 3.3C29.9004 3.2 30.1004 3.2 30.3004 3.2C30.5004 3.2 30.7004 3.2 30.9004 3.3L30.2004 3Z" fill="#1A2454"/>
</g>
<defs>
<clipPath id="clip0_803_748">
<rect width="154.8" height="38" fill="white"/>
</clipPath>
</defs>
</svg>
